<svg width="60" height="60" viewBox="0 0 60 60" fill="none" xmlns="http://www.w3.org/2000/svg">
<g clip-path="url(#clip0_546_355)">
<path d="M57.513 20.94H35.0088C35.0049 20.94 35.0017 20.9274 34.9978 20.924L33.0942 19.309L51.7282 3.52688C52.571 2.8131 52.6755 1.55063 51.9618 0.707939C51.2481 -0.134756 49.9863 -0.239873 49.1435 0.474033L29.9999 16.6861L10.8563 0.473916C10.0134 -0.240108 8.75177 -0.135342 8.03798 0.707471C7.32419 1.55028 7.42884 2.81204 8.27165 3.5256L26.9056 19.3062L25.002 20.924C24.9982 20.9272 24.9949 20.9399 24.991 20.9399H2.48692C1.38255 20.9399 0.53833 21.824 0.53833 22.9283V26.1393C0.53833 37.9924 7.8206 48.1676 18.172 52.3933C18.1707 52.4235 18.1353 52.4533 18.1353 52.4837V58.0103C18.1353 59.1147 19.0438 59.9998 20.1481 59.9998H39.8518C40.9562 59.9998 41.8646 59.1145 41.8646 58.0103V52.4837C41.8646 52.4533 41.8292 52.4235 41.8279 52.3933C52.1793 48.1676 59.4616 37.9924 59.4616 26.1393V22.9283C59.4615 21.8241 58.6174 20.94 57.513 20.94ZM37.8652 56.0006H22.1346V54.5343H28.8314H31.1683H37.8651V56.0006H37.8652ZM55.4622 26.1394C55.4622 39.5632 44.5923 50.5349 31.1684 50.5349H28.8315C15.4077 50.5349 4.5377 39.5632 4.5377 26.1394V24.9393H55.4624L55.4622 26.1394Z" fill="#B3B3B3"/>
</g>
<defs>
<clipPath id="clip0_546_355">
<rect width="60" height="60" fill="white"/>
</clipPath>
</defs>
</svg>
