<svg width="60" height="60" viewBox="0 0 60 60" fill="none" xmlns="http://www.w3.org/2000/svg">
<g clip-path="url(#clip0_546_325)">
<path d="M57.3913 43.0434H55.4347V17.6087C55.4347 16.5282 54.5588 15.6521 53.4782 15.6521H43.6957V11.7391H53.4783C54.5588 11.7391 55.4349 10.8632 55.4349 9.78258V1.95656C55.4349 0.876094 54.5589 0 53.4783 0H30C28.9195 0 28.0434 0.875976 28.0434 1.95656V9.78269C28.0434 10.8632 28.9194 11.7393 30 11.7393H39.7826V15.6523H6.52173C5.44126 15.6523 4.56517 16.5282 4.56517 17.6088V43.0436H2.60872C1.52825 43.0436 0.652161 43.9195 0.652161 45.0001V58.0436C0.652161 59.124 1.52814 60.0001 2.60872 60.0001H57.3913C58.4718 60.0001 59.3479 59.1241 59.3479 58.0436V45C59.3479 43.9195 58.4719 43.0434 57.3913 43.0434ZM31.9566 7.82613V3.91301H51.5217V7.82602L31.9566 7.82613ZM8.47829 19.5653H51.5217V43.0436H8.47829V19.5653ZM55.4347 56.087H4.56529V46.9566H6.52185H53.4784H55.435V56.087H55.4347Z" fill="#B3B3B3"/>
<path d="M22.1739 23.4783H14.3477C13.2673 23.4783 12.3912 24.3542 12.3912 25.4348C12.3912 26.5153 13.2672 27.3914 14.3477 27.3914H22.1739C23.2543 27.3914 24.1304 26.5154 24.1304 25.4348C24.1304 24.3542 23.2545 23.4783 22.1739 23.4783Z" fill="#B3B3B3"/>
<path d="M30 31.3045C31.0806 31.3045 31.9566 30.4285 31.9566 29.3479C31.9566 28.2673 31.0806 27.3914 30 27.3914C28.9194 27.3914 28.0435 28.2673 28.0435 29.3479C28.0435 30.4285 28.9194 31.3045 30 31.3045Z" fill="#B3B3B3"/>
<path d="M37.8261 31.3045C38.9067 31.3045 39.7827 30.4285 39.7827 29.3479C39.7827 28.2673 38.9067 27.3914 37.8261 27.3914C36.7455 27.3914 35.8696 28.2673 35.8696 29.3479C35.8696 30.4285 36.7455 31.3045 37.8261 31.3045Z" fill="#B3B3B3"/>
<path d="M45.6521 31.3045C46.7327 31.3045 47.6087 30.4285 47.6087 29.3479C47.6087 28.2673 46.7327 27.3914 45.6521 27.3914C44.5715 27.3914 43.6956 28.2673 43.6956 29.3479C43.6956 30.4285 44.5715 31.3045 45.6521 31.3045Z" fill="#B3B3B3"/>
<path d="M30 39.1304C31.0806 39.1304 31.9566 38.2544 31.9566 37.1738C31.9566 36.0933 31.0806 35.2173 30 35.2173C28.9194 35.2173 28.0435 36.0933 28.0435 37.1738C28.0435 38.2544 28.9194 39.1304 30 39.1304Z" fill="#B3B3B3"/>
<path d="M37.8261 39.1304C38.9067 39.1304 39.7827 38.2544 39.7827 37.1738C39.7827 36.0933 38.9067 35.2173 37.8261 35.2173C36.7455 35.2173 35.8696 36.0933 35.8696 37.1738C35.8696 38.2544 36.7455 39.1304 37.8261 39.1304Z" fill="#B3B3B3"/>
<path d="M45.6521 39.1304C46.7327 39.1304 47.6087 38.2544 47.6087 37.1738C47.6087 36.0933 46.7327 35.2173 45.6521 35.2173C44.5715 35.2173 43.6956 36.0933 43.6956 37.1738C43.6956 38.2544 44.5715 39.1304 45.6521 39.1304Z" fill="#B3B3B3"/>
<path d="M30 53.4783C31.0806 53.4783 31.9566 52.6023 31.9566 51.5217C31.9566 50.4412 31.0806 49.5652 30 49.5652C28.9194 49.5652 28.0435 50.4412 28.0435 51.5217C28.0435 52.6023 28.9194 53.4783 30 53.4783Z" fill="#B3B3B3"/>
</g>
<defs>
<clipPath id="clip0_546_325">
<rect width="60" height="60" fill="white"/>
</clipPath>
</defs>
</svg>
