<svg width="80" height="80" viewBox="0 0 80 80" fill="none" xmlns="http://www.w3.org/2000/svg">
<path d="M37.2084 70V70.375H37.5834H42.5834H42.9584V70V63.4035C46.8556 62.7606 49.8629 61.3764 51.9371 59.2182C54.0716 56.9971 55.125 54.0782 55.125 50.5C55.125 47.0955 54.2013 44.2429 52.3313 41.9701C50.4642 39.7008 47.5988 37.9885 43.7773 36.8084L43.7773 36.8083C39.2806 35.4205 36.2559 34.0894 34.6479 32.8298C33.0717 31.5951 32.2917 29.9955 32.2917 28C32.2917 26.1087 32.9937 24.6374 34.3969 23.546C35.8116 22.4457 37.7493 21.875 40.25 21.875C42.3167 21.875 43.95 22.2697 45.1781 23.0275C46.4034 23.7835 47.4011 25.0072 48.1565 26.7336L48.3056 27.0746L48.6477 26.928L53.3144 24.928L53.6646 24.7779L53.509 24.4302C52.5393 22.2626 51.1248 20.4757 49.2674 19.0756C47.4838 17.7309 45.3772 16.9029 42.9584 16.5844V10V9.625H42.5834H37.5834H37.2084V10V16.5768C34.1175 16.9139 31.5747 18.1036 29.6044 20.157C27.56 22.2878 26.5417 24.9387 26.5417 28.0833C26.5417 31.3351 27.5574 34.0685 29.601 36.256C31.6322 38.4302 34.6833 40.1511 38.7178 41.4401C42.9349 42.8274 45.7456 44.1696 47.2118 45.4492C48.6413 46.6968 49.375 48.4729 49.375 50.8333C49.375 53.0602 48.5603 54.7802 46.9371 56.0368C45.2943 57.3087 43.186 57.9583 40.5834 57.9583C38.1521 57.9583 36.0937 57.3249 34.3887 56.0728C32.6865 54.8228 31.3632 52.9072 30.4368 50.2915L30.3053 49.9201L29.9409 50.0698L25.2742 51.9865L24.9559 52.1172L25.0589 52.4456C25.9659 55.3367 27.458 57.7421 29.5381 59.6513C31.5597 61.5067 34.1221 62.7232 37.2084 63.3125V70Z" fill="#B3B3B3" stroke="#B3B3B3" stroke-width="0.75"/>
</svg>
