<svg width="16" height="32" viewBox="0 0 16 32" fill="none" xmlns="http://www.w3.org/2000/svg">
<g clip-path="url(#clip0_580_582)">
<path d="M6.54165 31V31.25H6.79165H9.29165H9.54165V31V27.7547C11.4738 27.428 12.9737 26.7344 14.0136 25.6524C15.094 24.5281 15.625 23.0522 15.625 21.25C15.625 19.5359 15.1596 18.0948 14.2139 16.9453C13.2701 15.7982 11.8251 14.9368 9.90708 14.3445L9.90704 14.3445C7.65925 13.6507 6.15667 12.9878 5.36248 12.3657C4.58944 11.7601 4.20831 10.9785 4.20831 10C4.20831 9.07245 4.55131 8.3555 5.2368 7.82234C5.92993 7.28324 6.88373 7 8.12498 7C9.15094 7 9.95507 7.19601 10.5562 7.56693C11.1555 7.9367 11.647 8.53721 12.0209 9.39187L12.1204 9.61919L12.3485 9.52145L14.6818 8.52145L14.9152 8.42141L14.8115 8.18958C14.3225 7.09638 13.6086 6.19445 12.6713 5.48787C11.7834 4.81851 10.7379 4.40325 9.54165 4.23759V1V0.75H9.29165H6.79165H6.54165V1V4.23252C5.00838 4.41064 3.74162 5.00912 2.75708 6.03525C1.72287 7.11317 1.20831 8.45453 1.20831 10.0417C1.20831 11.6817 1.72111 13.0642 2.7548 14.1707C3.78019 15.2683 5.31658 16.1331 7.33952 16.7795C9.44724 17.4729 10.8419 18.1408 11.5648 18.7717C12.2631 19.3812 12.625 20.2504 12.625 21.4167C12.625 22.5124 12.2254 23.3534 11.4303 23.969C10.6221 24.5947 9.58233 24.9167 8.29165 24.9167C7.08746 24.9167 6.07166 24.6031 5.23129 23.986C4.39284 23.3703 3.7375 22.4242 3.2773 21.1249L3.18962 20.8773L2.94667 20.9771L0.613333 21.9354L0.401095 22.0226L0.469776 22.2415C0.926302 23.6967 1.67797 24.9091 2.72677 25.8717C3.73625 26.7982 5.01156 27.4077 6.54165 27.7078V31Z" fill="#B3B3B3" stroke="#B3B3B3" stroke-width="0.5"/>
</g>
<defs>
<clipPath id="clip0_580_582">
<rect width="16" height="32" fill="white"/>
</clipPath>
</defs>
</svg>
