<svg width="70" height="70" viewBox="0 0 70 70" fill="none" xmlns="http://www.w3.org/2000/svg">
<path d="M14.5833 37.2156C14.5833 33.2555 14.5833 31.2754 15.3838 29.5349C16.1843 27.7944 17.6877 26.5058 20.6945 23.9286L23.6111 21.4286C29.0458 16.7703 31.7631 14.4412 35 14.4412C38.2368 14.4412 40.9542 16.7703 46.3888 21.4286L49.3055 23.9286C52.3122 26.5058 53.8156 27.7944 54.6161 29.5349C55.4166 31.2754 55.4166 33.2555 55.4166 37.2156V49.5834C55.4166 55.0831 55.4166 57.833 53.7081 59.5415C51.9996 61.2501 49.2497 61.2501 43.75 61.2501H26.25C20.7503 61.2501 18.0004 61.2501 16.2919 59.5415C14.5833 57.833 14.5833 55.0831 14.5833 49.5834V37.2156Z" stroke="#B3B3B3" stroke-width="4.5"/>
<path d="M42.2916 61.25V44.75C42.2916 44.1977 41.8439 43.75 41.2916 43.75H28.7083C28.156 43.75 27.7083 44.1977 27.7083 44.75V61.25" stroke="#B3B3B3" stroke-width="4.5" stroke-linecap="round" stroke-linejoin="round"/>
</svg>
