<svg width="46" height="52" viewBox="0 0 46 52" fill="none" xmlns="http://www.w3.org/2000/svg">
<path d="M2.58331 25.2156C2.58331 21.2555 2.58331 19.2754 3.38383 17.5349C4.18434 15.7944 5.68771 14.5058 8.69446 11.9286L11.6111 9.4286C17.0458 4.77031 19.7631 2.44116 23 2.44116C26.2368 2.44116 28.9542 4.77031 34.3888 9.4286L37.3055 11.9286C40.3122 14.5058 41.8156 15.7944 42.6161 17.5349C43.4166 19.2754 43.4166 21.2555 43.4166 25.2156V37.5834C43.4166 43.0831 43.4166 45.833 41.7081 47.5415C39.9996 49.2501 37.2497 49.2501 31.75 49.2501H14.25C8.75026 49.2501 6.0004 49.2501 4.29186 47.5415C2.58331 45.833 2.58331 43.0831 2.58331 37.5834V25.2156Z" stroke="#2261FF" stroke-width="4.5"/>
<path d="M30.2916 49.25V32.75C30.2916 32.1977 29.8439 31.75 29.2916 31.75H16.7083C16.156 31.75 15.7083 32.1977 15.7083 32.75V49.25" stroke="#2261FF" stroke-width="4.5" stroke-linecap="round" stroke-linejoin="round"/>
</svg>
