<svg width="34" height="38" viewBox="0 0 34 38" fill="none" xmlns="http://www.w3.org/2000/svg">
<path d="M31.8152 26.5109V18.4449C31.8152 18.3397 31.8152 18.2359 31.8153 18.1335C31.8166 15.8547 31.8175 14.2476 31.1559 12.809C30.4942 11.3704 29.2734 10.3252 27.5424 8.84319C27.4645 8.77657 27.3857 8.70907 27.3058 8.64062L25.4037 7.01018L25.3284 6.94566C23.6202 5.48147 22.2316 4.29118 21.0029 3.47965C19.721 2.63305 18.4609 2.09204 17 2.09204C15.5391 2.09204 14.2789 2.63305 12.9971 3.47965C11.7683 4.29118 10.3797 5.48146 8.67157 6.94564L8.59627 7.01018L6.6941 8.64062C6.61423 8.70908 6.53539 8.77658 6.45758 8.84319C4.72652 10.3252 3.5057 11.3704 2.84406 12.809C2.18241 14.2476 2.18333 15.8547 2.18464 18.1335C2.18469 18.2359 2.18475 18.3397 2.18475 18.4449V26.5109L2.18475 26.614C2.18469 28.3194 2.18464 29.7488 2.33741 30.8852C2.49906 32.0875 2.85607 33.1837 3.73836 34.066C4.62065 34.9483 5.71686 35.3053 6.91917 35.4669C8.0555 35.6197 9.4849 35.6196 11.1903 35.6196H11.2934H22.7065H22.8096C24.515 35.6196 25.9444 35.6197 27.0808 35.4669C28.2831 35.3053 29.3793 34.9483 30.2616 34.066C31.1439 33.1837 31.5009 32.0875 31.6625 30.8852C31.8153 29.7488 31.8153 28.3194 31.8152 26.614L31.8152 26.5109Z" stroke="#B3B3B3" stroke-width="3"/>
<path d="M21.7554 34.1196V23.7065C21.7554 23.1543 21.3077 22.7065 20.7554 22.7065H13.2446C12.6923 22.7065 12.2446 23.1543 12.2446 23.7065V34.1196" stroke="#B3B3B3" stroke-width="3" stroke-linecap="round" stroke-linejoin="round"/>
</svg>
