<svg width="60" height="60" viewBox="0 0 60 60" fill="none" xmlns="http://www.w3.org/2000/svg">
<path d="M30.1875 7.5V7.25H29.9375H11.25C10.1794 7.25 9.24195 7.6545 8.44822 8.44822C7.6545 9.24195 7.25 10.1794 7.25 11.25V48.75C7.25 49.8206 7.6545 50.758 8.44822 51.5518C9.24195 52.3455 10.1794 52.75 11.25 52.75H29.9375H30.1875V52.5V48.75V48.5H29.9375H11.5V11.5H29.9375H30.1875V11.25V7.5ZM41.4482 41.1143L41.625 41.2911L41.8018 41.1143L52.6768 30.2393L52.8536 30.0625L52.6768 29.8857L41.6768 18.8857L41.5 18.7089L41.3232 18.8857L38.6357 21.5732L38.4589 21.75L38.6357 21.9268L44.5839 27.875H22.5H22.25V28.125V31.875V32.125H22.5H44.7089L38.7607 38.0732L38.5839 38.25L38.7607 38.4268L41.4482 41.1143Z" fill="#B3B3B3" stroke="#B3B3B3" stroke-width="0.5"/>
</svg>
