<svg width="40" height="40" viewBox="0 0 40 40" fill="none" xmlns="http://www.w3.org/2000/svg">
<g clip-path="url(#clip0_580_584)">
<path d="M38.342 13.96H23.3392C23.3366 13.96 23.3344 13.9516 23.3319 13.9493L22.0628 12.8727L34.4854 2.35126C35.0473 1.8754 35.117 1.03376 34.6412 0.47196C34.1654 -0.0898373 33.3242 -0.159915 32.7623 0.316022L19.9999 11.1241L7.23756 0.315944C6.67561 -0.160072 5.83451 -0.0902279 5.35865 0.471647C4.88279 1.03352 4.95256 1.87469 5.51443 2.3504L17.9371 12.8708L16.668 13.9493C16.6654 13.9515 16.6633 13.9599 16.6607 13.9599H1.65795C0.921699 13.9599 0.358887 14.5493 0.358887 15.2856V17.4262C0.358887 25.3283 5.21373 32.1117 12.1147 34.9288C12.1138 34.949 12.0902 34.9688 12.0902 34.9891V38.6735C12.0902 39.4098 12.6958 39.9998 13.4321 39.9998H26.5679C27.3041 39.9998 27.9097 39.4097 27.9097 38.6735V34.9891C27.9097 34.9688 27.8862 34.949 27.8853 34.9288C34.7862 32.1117 39.6411 25.3283 39.6411 17.4262V15.2856C39.641 14.5494 39.0783 13.96 38.342 13.96ZM25.2435 37.3338H14.7564V36.3562H19.2209H20.7789H25.2434V37.3338H25.2435ZM36.9748 17.4263C36.9748 26.3755 29.7282 33.6899 20.779 33.6899H19.221C10.2718 33.6899 3.02514 26.3755 3.02514 17.4263V16.6262H36.9749L36.9748 17.4263Z" fill="#2261FF"/>
</g>
<defs>
<clipPath id="clip0_580_584">
<rect width="40" height="40" fill="white"/>
</clipPath>
</defs>
</svg>
