<svg width="24" height="48" viewBox="0 0 24 48" fill="none" xmlns="http://www.w3.org/2000/svg">
<path d="M9.9375 46.5V46.75H10.1875H13.9375H14.1875V46.5V41.5261C17.1188 41.0465 19.3761 40.0092 20.9303 38.392C22.5246 36.733 23.3125 34.5522 23.3125 31.875C23.3125 29.3276 22.6215 27.1955 21.2243 25.4974C19.8291 23.8017 17.6862 22.5201 14.8238 21.6361L14.8237 21.6361C11.4509 20.5951 9.17752 19.5954 7.96667 18.6469C6.77696 17.715 6.1875 16.5062 6.1875 15C6.1875 13.5724 6.718 12.4597 7.77849 11.6348C8.84661 10.8041 10.3074 10.375 12.1875 10.375C13.7412 10.375 14.9724 10.6717 15.9 11.244C16.8256 11.8152 17.5776 12.7386 18.146 14.0377L18.2454 14.265L18.4735 14.1673L21.9735 12.6673L22.2069 12.5672L22.1032 12.3354C21.378 10.7144 20.3204 9.37848 18.9317 8.33162C17.5921 7.32172 16.0083 6.70136 14.1875 6.46576V1.5V1.25H13.9375H10.1875H9.9375V1.5V6.46062C7.61316 6.70866 5.70378 7.59904 4.22585 9.13942C2.69858 10.7312 1.9375 12.7115 1.9375 15.0625C1.9375 17.4942 2.69682 19.5364 4.22357 21.1707C5.742 22.796 8.02487 24.0845 11.0478 25.0503C14.2111 26.0909 16.3245 27.0991 17.4294 28.0634C18.5097 29.0062 19.0625 30.3477 19.0625 32.125C19.0625 33.804 18.4476 35.1034 17.222 36.0523C15.9832 37.0113 14.3948 37.5 12.4375 37.5C10.6083 37.5 9.05779 37.0233 7.77298 36.0798C6.49008 35.1376 5.49446 33.6951 4.79816 31.729L4.71047 31.4815L4.46752 31.5812L0.96752 33.0187L0.755282 33.1059L0.823963 33.3248C1.50271 35.4883 2.61896 37.2876 4.1747 38.7154C5.69146 40.1075 7.61624 41.0193 9.9375 41.4585V46.5Z" fill="#B3B3B3" stroke="#B3B3B3" stroke-width="0.5"/>
</svg>
