<svg width="40" height="40" viewBox="0 0 40 40" fill="none" xmlns="http://www.w3.org/2000/svg">
<g clip-path="url(#clip0_580_554)">
<path d="M38.2608 28.6956H36.9565V11.7391C36.9565 11.0188 36.3725 10.4348 35.6521 10.4348H29.1305V7.82609H35.6522C36.3725 7.82609 36.9565 7.24211 36.9565 6.52172V1.30437C36.9565 0.584062 36.3726 0 35.6522 0H20C19.2797 0 18.6956 0.583984 18.6956 1.30437V6.5218C18.6956 7.24211 19.2796 7.82617 20 7.82617H26.5217V10.4348H4.3478C3.62749 10.4348 3.04343 11.0188 3.04343 11.7392V28.6957H1.73913C1.01882 28.6957 0.434753 29.2797 0.434753 30.0001V38.6957C0.434753 39.416 1.01874 40.0001 1.73913 40.0001H38.2608C38.9812 40.0001 39.5652 39.4161 39.5652 38.6957V30C39.5652 29.2797 38.9812 28.6956 38.2608 28.6956ZM21.3044 5.21742V2.60867H34.3478V5.21734L21.3044 5.21742ZM5.65217 13.0435H34.3478V28.6957H5.65217V13.0435ZM36.9565 37.3913H3.0435V31.3044H4.34788H35.6522H36.9566V37.3913H36.9565Z" fill="#B3B3B3"/>
<path d="M14.7826 15.6521H9.56518C8.84487 15.6521 8.2608 16.2361 8.2608 16.9565C8.2608 17.6768 8.84479 18.2608 9.56518 18.2608H14.7826C15.5029 18.2608 16.087 17.6769 16.087 16.9565C16.087 16.2361 15.503 15.6521 14.7826 15.6521Z" fill="#B3B3B3"/>
<path d="M20 20.8695C20.7204 20.8695 21.3044 20.2855 21.3044 19.5651C21.3044 18.8447 20.7204 18.2607 20 18.2607C19.2796 18.2607 18.6956 18.8447 18.6956 19.5651C18.6956 20.2855 19.2796 20.8695 20 20.8695Z" fill="#B3B3B3"/>
<path d="M25.2174 20.8695C25.9378 20.8695 26.5218 20.2855 26.5218 19.5651C26.5218 18.8447 25.9378 18.2607 25.2174 18.2607C24.497 18.2607 23.913 18.8447 23.913 19.5651C23.913 20.2855 24.497 20.8695 25.2174 20.8695Z" fill="#B3B3B3"/>
<path d="M30.4347 20.8695C31.1551 20.8695 31.7391 20.2855 31.7391 19.5651C31.7391 18.8447 31.1551 18.2607 30.4347 18.2607C29.7144 18.2607 29.1304 18.8447 29.1304 19.5651C29.1304 20.2855 29.7144 20.8695 30.4347 20.8695Z" fill="#B3B3B3"/>
<path d="M20 26.087C20.7204 26.087 21.3044 25.503 21.3044 24.7826C21.3044 24.0623 20.7204 23.4783 20 23.4783C19.2796 23.4783 18.6956 24.0623 18.6956 24.7826C18.6956 25.503 19.2796 26.087 20 26.087Z" fill="#B3B3B3"/>
<path d="M25.2174 26.087C25.9378 26.087 26.5218 25.503 26.5218 24.7826C26.5218 24.0623 25.9378 23.4783 25.2174 23.4783C24.497 23.4783 23.913 24.0623 23.913 24.7826C23.913 25.503 24.497 26.087 25.2174 26.087Z" fill="#B3B3B3"/>
<path d="M30.4347 26.087C31.1551 26.087 31.7391 25.503 31.7391 24.7826C31.7391 24.0623 31.1551 23.4783 30.4347 23.4783C29.7144 23.4783 29.1304 24.0623 29.1304 24.7826C29.1304 25.503 29.7144 26.087 30.4347 26.087Z" fill="#B3B3B3"/>
<path d="M20 35.6522C20.7204 35.6522 21.3044 35.0682 21.3044 34.3478C21.3044 33.6274 20.7204 33.0435 20 33.0435C19.2796 33.0435 18.6956 33.6274 18.6956 34.3478C18.6956 35.0682 19.2796 35.6522 20 35.6522Z" fill="#B3B3B3"/>
</g>
<defs>
<clipPath id="clip0_580_554">
<rect width="40" height="40" fill="white"/>
</clipPath>
</defs>
</svg>
