<svg width="30" height="30" viewBox="0 0 30 30" fill="none" xmlns="http://www.w3.org/2000/svg">
<path d="M15.2188 3.75V3.5H14.9688H5.625C5.05436 3.5 4.55445 3.717 4.13572 4.13572C3.717 4.55445 3.5 5.05436 3.5 5.625V24.375C3.5 24.9456 3.717 25.4455 4.13572 25.8643C4.55445 26.283 5.05436 26.5 5.625 26.5H14.9688H15.2188V26.25V24.375V24.125H14.9688H5.875V5.875H14.9688H15.2188V5.625V3.75ZM20.6357 20.6455L20.8125 20.8223L20.9893 20.6455L26.4268 15.208L26.6036 15.0312L26.4268 14.8545L20.9268 9.35447L20.75 9.1777L20.5732 9.35447L19.2295 10.6982L19.0527 10.875L19.2295 11.0518L21.9902 13.8125H11.25H11V14.0625V15.9375V16.1875H11.25H22.0527L19.292 18.9482L19.1152 19.125L19.292 19.3018L20.6357 20.6455Z" fill="#B3B3B3" stroke="#B3B3B3" stroke-width="0.5"/>
</svg>
